<svg xmlns="http://www.w3.org/2000/svg" xmlns:xlink="http://www.w3.org/1999/xlink" viewBox="0 0 3802.33 732.22"><defs><style>.cls-1{fill:url(#linear-gradient);}.cls-2{fill:url(#linear-gradient-2);}.cls-3{fill:#fff;}</style><linearGradient id="linear-gradient" x1="59.52" y1="-1033.85" x2="570.85" y2="-1563.35" gradientTransform="translate(65.03 1675.93)" gradientUnits="userSpaceOnUse"><stop offset="0" stop-color="#1f01fc"/><stop offset="1" stop-color="#eb2125"/></linearGradient><linearGradient id="linear-gradient-2" x1="5747.68" y1="434.42" x2="5748.48" y2="435.28" gradientTransform="matrix(481.89, 0, 0, -474.76, -2769542.1, 207010.98)" gradientUnits="userSpaceOnUse"><stop offset="0.49" stop-color="#1f00fc"/><stop offset="1" stop-color="#f2221d"/></linearGradient></defs><g id="Layer_2" data-name="Layer 2"><g id="Layer_1-2" data-name="Layer 1"><g id="Artboard-9"><g id="Group"><g id="Group-6"><g id="Group-3"><path id="Fill-1" class="cls-1" d="M732.23,565.71H596.13v-204c0-39.8-7.6-77.8-27.4-112.7-32.9-57.9-82.9-92.9-147.3-107.6-120.1-27.4-240.8,39.8-279,156.9-23.2,71.2-11.3,138.8,30.6,200.4,34.1,50.2,81.7,81.9,141,95.8a254.36,254.36,0,0,0,60.2,6.1c16.9-.2,18,.9,18,17.5v101c0,11.8-.6,12.7-12.2,13-95.1,2.1-179.8-25.9-252.4-88-63.5-54.4-102.9-123.4-120.4-204.9-8.3-38.6-9.1-77.6-4.2-116.8,6-48.6,19.4-94.9,44.6-136.9,54.8-91.6,132.5-154,238.2-176.3,83.7-17.6,166-10.8,243.6,27.6,72.4,35.9,130.1,88.2,167.9,160.6,20.6,39.4,31.4,81.6,33.8,126,.7,12.8,1,25.7,1,38.5Q732.28,426,732.23,565.71Z"/></g><path id="Fill-4" class="cls-2" d="M561.53,600.61h170.3v130.9H419.33v-7.1q-.45-167.55-.8-335.2c0-12.1-.6-24.2-4.9-35.7-9.5-25-31.8-38.5-57.5-34.8-24.6,3.6-45.5,26.3-46.9,51.2-1.6,28.1,14.4,51.1,40.9,58.7,9.5,2.7,18.6,1.9,27.2-3.4,3.7-2.2,7.6-4.1,12-6.5v147.7c-6.9.9-14.1,2.6-21.3,2.7-82,.5-144.3-33.8-183.5-106.5-17.4-32.3-22.8-68-20.7-104.4,3.6-62.1,32.1-111.3,80.8-148.9,26.9-20.8,58.5-31,91.9-35.6,42.6-5.8,83.6-.4,122.6,18,50.8,23.9,80.9,64.6,94.9,118.1,6.2,23.8,7.4,48.1,7.4,72.5v218.3Z"/></g></g><path id="Analogica" class="cls-3" d="M1059.43,138.41h84.5l168.4,458.1h-86.6l-34.2-94.4H1013l-35.7,94.4h-86.6Zm42.8,121.5-58.3,157.3h116.3Zm249.7-2.2h80.9v34.6c18.4-16.2,35.2-27.5,50.1-33.8a117.53,117.53,0,0,1,46-9.5q48.15,0,81.8,35.2c18.8,19.9,28.3,49.4,28.3,88.4v223.9h-80.3V448q0-60.75-5.2-80.7c-3.5-13.3-9.5-23.4-18.1-30.4s-19.3-10.4-32-10.4a58.6,58.6,0,0,0-42.4,17.3c-11.8,11.5-20,27.5-24.5,47.8q-3.6,15.9-3.6,68.8v136.1H1352V257.71Zm588.9,0h80.9v338.8h-80.9v-35.8c-15.9,15.8-31.8,27.1-47.8,34.1s-33.3,10.4-51.9,10.4q-62.85,0-108.6-50.9t-45.8-126.6q0-78.45,44.3-128.6c29.5-33.4,65.5-50.1,107.7-50.1a131.18,131.18,0,0,1,54.7,11.5c17.1,7.7,32.8,19.2,47.3,34.6v-37.4Zm-85.4,69.8q-37.8,0-62.8,27.9t-25,71.5q0,44,25.4,72.2c16.9,18.8,37.8,28.3,62.6,28.3q38.4,0,63.7-27.9t25.3-73q0-44.25-25.3-71.6c-16.9-18.2-38.2-27.4-63.9-27.4Zm223.7-200.6h81.2v469.6h-81.2ZM2369.93,249a165.33,165.33,0,0,1,86.1,24,169.56,169.56,0,0,1,62.9,65.1,181,181,0,0,1,22.6,88.8,184.07,184.07,0,0,1-22.8,89.7q-22.8,41.7-62,65.2c-26.2,15.7-55,23.5-86.6,23.5q-69.6,0-118.9-51.9t-49.2-126q0-79.35,55.6-132.4,48.9-45.9,112.3-46Zm1.2,80q-37.8,0-62.9,27.6c-16.8,18.4-25.1,41.9-25.1,70.5q0,44.25,24.8,71.6c16.5,18.2,37.5,27.4,62.9,27.4s46.5-9.2,63.4-27.7,25.3-42.2,25.3-71.3-8.3-52.7-24.8-70.8q-25-27.3-63.6-27.3Zm460-71.3H2912v290.2q0,86-33,126.4-44.4,54.75-133.6,54.8-47.55,0-80-12.5c-21.6-8.3-39.9-20.5-54.7-36.6s-25.9-35.7-33-58.7h89.6a72.38,72.38,0,0,0,30.6,21.6c12.5,4.9,27.3,7.3,44.3,7.3q32.7,0,52.7-10.6c13.3-7.1,22.7-16.2,28.1-27.4s8.2-30.5,8.2-57.9c-14.3,14.9-29.3,25.7-44.9,32.2s-33.4,9.8-53.3,9.8q-65.1,0-110.1-49.2T2578,422.51q0-80.7,47.6-129.5,43.2-44.25,102.9-44.2a132.72,132.72,0,0,1,52.8,10.7c16.6,7.2,33.2,18.9,49.8,35.3v-37.1Zm-84.2,70.7q-38.4,0-63.4,26.9c-16.7,18-25,40.5-25,67.7,0,28.2,8.5,51.4,25.6,69.4s38.5,27.1,64.3,27.1q37.8,0,62.3-26.5c16.4-17.6,24.5-40.8,24.5-69.4,0-28.2-8.2-51.2-24.7-68.8s-37.6-26.4-63.6-26.4Zm263-210.2c14.3,0,26.5,5.4,36.7,16.2s15.3,23.9,15.3,39.2-5.1,28.1-15.2,38.8-22.2,16-36.3,16c-14.5,0-26.8-5.4-37-16.3s-15.3-24.1-15.3-39.7a53.59,53.59,0,0,1,15.2-38.3c10.1-10.6,22.4-15.9,36.6-15.9Zm-40.7,139.5h81.5v338.8h-81.5Zm455.8,68.5-67.5,38.9q-19-20.85-37.6-29c-12.4-5.4-26.9-8.1-43.6-8.1-30.3,0-54.9,9.5-73.6,28.5s-28.1,43.3-28.1,73c0,28.9,9,52.4,27.1,70.7s41.8,27.4,71.1,27.4q54.45,0,84.8-38.9l64,45.8q-52.05,70.65-147,70.7-85.35,0-133.7-52.9t-48.4-123.9q0-49.2,23.5-90.6a169.59,169.59,0,0,1,65.6-65.1q42.15-23.7,94.2-23.7,48.15,0,86.6,20.1A167.24,167.24,0,0,1,3425,326.21Zm296.4-68.5h80.9v338.8h-80.9v-35.8c-15.9,15.8-31.8,27.1-47.8,34.1s-33.3,10.4-51.9,10.4q-62.85,0-108.6-50.9t-45.8-126.6q0-78.45,44.3-128.6t107.7-50.1a131.18,131.18,0,0,1,54.7,11.5c17.1,7.7,32.8,19.2,47.3,34.6v-37.4Zm-85.4,69.8q-37.8,0-62.8,27.9t-25,71.5q0,44,25.4,72.2c17,18.9,37.8,28.3,62.6,28.3q38.4,0,63.7-27.9t25.3-73q0-44.25-25.3-71.6T3636,327.51Z"/></g></g></g></svg>