<svg xmlns="http://www.w3.org/2000/svg" xmlns:xlink="http://www.w3.org/1999/xlink" viewBox="0 0 352.8 78.68"><defs><style>.cls-1{fill:#1a1a1a;}.cls-2{fill:url(#linear-gradient);}</style><linearGradient id="linear-gradient" y1="39.18" x2="150.96" y2="39.18" gradientUnits="userSpaceOnUse"><stop offset="0" stop-color="#00d2ff"/><stop offset="1" stop-color="#3a7bd5"/></linearGradient></defs><g id="Layer_2" data-name="Layer 2"><g id="Layer_1-2" data-name="Layer 1"><path class="cls-1" d="M184.4,27.61a6.44,6.44,0,0,0,2.55-.48,5.34,5.34,0,0,0,1.89-1.34A6,6,0,0,0,190,23.73a8.21,8.21,0,0,0,.4-2.64V7.15h3.09V21.09a10.5,10.5,0,0,1-.63,3.68,8.36,8.36,0,0,1-1.81,2.93,8.21,8.21,0,0,1-2.87,1.95,10.72,10.72,0,0,1-7.62,0,8.26,8.26,0,0,1-4.69-4.88,10.5,10.5,0,0,1-.63-3.68V7.15h3.08V21.07a8.21,8.21,0,0,0,.41,2.64A5.75,5.75,0,0,0,180,25.77a5.37,5.37,0,0,0,1.9,1.36A6.44,6.44,0,0,0,184.4,27.61Z"/><path class="cls-1" d="M201,16.22a9.41,9.41,0,0,1,1.12-1.07,7.27,7.27,0,0,1,1.25-.82,6.12,6.12,0,0,1,1.41-.53,6.77,6.77,0,0,1,1.61-.19,5.92,5.92,0,0,1,2.34.44,4.65,4.65,0,0,1,1.7,1.25,5.67,5.67,0,0,1,1,1.95,8.55,8.55,0,0,1,.35,2.51V30.08H208.9V19.76a4.37,4.37,0,0,0-.84-2.86,3.11,3.11,0,0,0-2.55-1,4.88,4.88,0,0,0-2.37.6,8,8,0,0,0-2,1.65V30.08h-2.86V13.87H200a.7.7,0,0,1,.75.59Z"/><path class="cls-1" d="M220.05,8.78a1.85,1.85,0,0,1-.17.78,2.18,2.18,0,0,1-.45.64,2.13,2.13,0,0,1-.65.44,2.15,2.15,0,0,1-.8.16,2,2,0,0,1-.77-.16,2.16,2.16,0,0,1-1.07-1.08,2,2,0,0,1-.16-.78,2.07,2.07,0,0,1,.6-1.45,2.16,2.16,0,0,1,.63-.44,2,2,0,0,1,.77-.16,2.15,2.15,0,0,1,.8.16,2.11,2.11,0,0,1,1.1,1.1A1.93,1.93,0,0,1,220.05,8.78Zm-.61,5.09V30.08h-2.85V13.87Z"/><path class="cls-1" d="M233.87,16.54a.62.62,0,0,1-.59.35,1.05,1.05,0,0,1-.54-.17c-.21-.12-.45-.25-.75-.39a5.93,5.93,0,0,0-1.05-.4,4.7,4.7,0,0,0-1.44-.19,4,4,0,0,0-1.29.19,3.18,3.18,0,0,0-1,.5,2.17,2.17,0,0,0-.62.74,2.08,2.08,0,0,0-.22.92,1.51,1.51,0,0,0,.36,1,3,3,0,0,0,1,.72,7.2,7.2,0,0,0,1.34.54c.5.15,1,.32,1.54.5s1,.37,1.55.58a5.41,5.41,0,0,1,1.34.8,3.54,3.54,0,0,1,.95,1.18,3.58,3.58,0,0,1,.36,1.67,5.23,5.23,0,0,1-.4,2.07,4.56,4.56,0,0,1-1.18,1.65,5.6,5.6,0,0,1-1.92,1.09,7.8,7.8,0,0,1-2.62.4,8.2,8.2,0,0,1-3.08-.55,8,8,0,0,1-2.33-1.41l.67-1.09a1,1,0,0,1,.3-.32.79.79,0,0,1,.45-.11,1.06,1.06,0,0,1,.61.22c.21.15.47.31.78.5a5.83,5.83,0,0,0,1.11.49,5.08,5.08,0,0,0,1.63.23,4.62,4.62,0,0,0,1.46-.22,3.16,3.16,0,0,0,1-.58,2.39,2.39,0,0,0,.61-.85,2.52,2.52,0,0,0,.2-1,1.72,1.72,0,0,0-.36-1.11,3.16,3.16,0,0,0-.95-.75,7.3,7.3,0,0,0-1.35-.54l-1.55-.49c-.53-.17-1.05-.37-1.56-.59a5.41,5.41,0,0,1-1.35-.82,3.82,3.82,0,0,1-1-1.22,4,4,0,0,1-.36-1.77,4.32,4.32,0,0,1,1.5-3.29A5.49,5.49,0,0,1,227,14a7.16,7.16,0,0,1,2.45-.39,7.65,7.65,0,0,1,2.87.51,6.79,6.79,0,0,1,2.2,1.38Z"/><path class="cls-1" d="M252.31,13.87l-9,21a1.43,1.43,0,0,1-.37.51,1,1,0,0,1-.66.2h-2.11l3-6.44L236.4,13.87h2.46a.89.89,0,0,1,.59.18,1,1,0,0,1,.29.41l4.34,10.21a12.18,12.18,0,0,1,.43,1.41c.15-.5.31-1,.48-1.43l4.21-10.19a.9.9,0,0,1,.33-.42.87.87,0,0,1,.52-.17Z"/><path class="cls-1" d="M257.82,16.22a11.22,11.22,0,0,1,1.12-1.07,7.76,7.76,0,0,1,1.26-.82,6.12,6.12,0,0,1,1.41-.53,6.77,6.77,0,0,1,1.61-.19,5.92,5.92,0,0,1,2.34.44,4.65,4.65,0,0,1,1.7,1.25,5.67,5.67,0,0,1,1,1.95,8.55,8.55,0,0,1,.35,2.51V30.08h-2.86V19.76a4.37,4.37,0,0,0-.84-2.86,3.11,3.11,0,0,0-2.56-1,4.84,4.84,0,0,0-2.36.6,8,8,0,0,0-2,1.65V30.08h-2.86V13.87h1.71a.71.71,0,0,1,.75.59Z"/><path class="cls-1" d="M178.66,62.08h-3.11V39.15h3.11Z"/><path class="cls-1" d="M186.61,48.22a10.23,10.23,0,0,1,1.12-1.07,7,7,0,0,1,1.26-.82,6.22,6.22,0,0,1,1.4-.53,6.9,6.9,0,0,1,1.61-.19,5.93,5.93,0,0,1,2.35.44A4.61,4.61,0,0,1,196,47.3a5.35,5.35,0,0,1,1,2,8.23,8.23,0,0,1,.36,2.51V62.08h-2.87V51.76a4.37,4.37,0,0,0-.84-2.86,3.11,3.11,0,0,0-2.55-1,4.84,4.84,0,0,0-2.36.6,7.8,7.8,0,0,0-2,1.65V62.08h-2.87V45.87h1.71a.71.71,0,0,1,.76.59Z"/><path class="cls-1" d="M206.85,62.33a3.88,3.88,0,0,1-2.95-1.07,4.26,4.26,0,0,1-1-3.09V48.25h-2a.64.64,0,0,1-.43-.15.58.58,0,0,1-.17-.47V46.49l2.65-.33.66-5a.68.68,0,0,1,.21-.39.65.65,0,0,1,.44-.15h1.44v5.58h4.69v2.06h-4.69V58a2.08,2.08,0,0,0,.5,1.52,1.74,1.74,0,0,0,1.28.5,2.28,2.28,0,0,0,.78-.12,3.24,3.24,0,0,0,.56-.27,4.27,4.27,0,0,0,.41-.26.53.53,0,0,1,.3-.12.49.49,0,0,1,.4.27l.83,1.36A5.21,5.21,0,0,1,209,61.94,6,6,0,0,1,206.85,62.33Z"/><path class="cls-1" d="M226.74,59.81a5.48,5.48,0,0,1-1.27,1.11,7.89,7.89,0,0,1-1.57.77,9.28,9.28,0,0,1-1.74.46,10.75,10.75,0,0,1-1.77.15,8.22,8.22,0,0,1-3.1-.57,6.74,6.74,0,0,1-2.45-1.66,7.66,7.66,0,0,1-1.61-2.71,11.16,11.16,0,0,1-.57-3.71,9.37,9.37,0,0,1,.52-3.17,7.36,7.36,0,0,1,1.49-2.55,6.89,6.89,0,0,1,2.39-1.7,7.83,7.83,0,0,1,3.17-.62,7.35,7.35,0,0,1,2.69.49,6.28,6.28,0,0,1,2.15,1.41,6.43,6.43,0,0,1,1.41,2.27,8.69,8.69,0,0,1,.51,3.08,1.84,1.84,0,0,1-.14.9.6.6,0,0,1-.54.22H215.47a9.68,9.68,0,0,0,.43,2.67,5.35,5.35,0,0,0,1,1.9,4.13,4.13,0,0,0,1.6,1.14,5.51,5.51,0,0,0,2.08.37,5.89,5.89,0,0,0,1.84-.25,8.31,8.31,0,0,0,1.34-.53,9.18,9.18,0,0,0,.94-.54,1.27,1.27,0,0,1,.64-.25.62.62,0,0,1,.55.28Zm-2.31-7.6a5.52,5.52,0,0,0-.28-1.82,3.9,3.9,0,0,0-.81-1.42A3.64,3.64,0,0,0,222,48a4.35,4.35,0,0,0-1.74-.33,4.41,4.41,0,0,0-3.24,1.19,5.63,5.63,0,0,0-1.48,3.31Z"/><path class="cls-1" d="M233.51,49.12a7.31,7.31,0,0,1,1.88-2.6,4.11,4.11,0,0,1,2.74-.94,4.62,4.62,0,0,1,1,.11,2.88,2.88,0,0,1,.84.36l-.21,2.12a.46.46,0,0,1-.48.4,3.56,3.56,0,0,1-.66-.09,4.13,4.13,0,0,0-1-.1,3.86,3.86,0,0,0-1.37.23,3.2,3.2,0,0,0-1.07.66,4.53,4.53,0,0,0-.85,1.09,8.87,8.87,0,0,0-.68,1.48V62.08H230.8V45.87h1.63a.92.92,0,0,1,.65.18,1.09,1.09,0,0,1,.23.6Z"/><path class="cls-1" d="M245.46,48.22a9.41,9.41,0,0,1,1.12-1.07,7,7,0,0,1,1.26-.82,6.22,6.22,0,0,1,1.4-.53,6.83,6.83,0,0,1,1.61-.19,5.85,5.85,0,0,1,2.34.44,4.56,4.56,0,0,1,1.7,1.25,5.5,5.5,0,0,1,1,2,8.23,8.23,0,0,1,.35,2.51V62.08h-2.86V51.76a4.37,4.37,0,0,0-.84-2.86,3.11,3.11,0,0,0-2.55-1,4.84,4.84,0,0,0-2.36.6,7.8,7.8,0,0,0-2,1.65V62.08h-2.87V45.87h1.71a.7.7,0,0,1,.75.59Z"/><path class="cls-1" d="M260.53,48.16a9.22,9.22,0,0,1,2.9-1.94,9,9,0,0,1,3.44-.64,6.09,6.09,0,0,1,2.41.45,4.86,4.86,0,0,1,1.78,1.25,5.36,5.36,0,0,1,1.09,1.93,8.25,8.25,0,0,1,.37,2.5V62.08h-1.27a1.24,1.24,0,0,1-.64-.14.9.9,0,0,1-.35-.53l-.32-1.54c-.43.39-.84.74-1.25,1.05a7.25,7.25,0,0,1-1.28.77,7,7,0,0,1-3.12.64,5.66,5.66,0,0,1-1.77-.26,4.15,4.15,0,0,1-1.45-.79,3.73,3.73,0,0,1-1-1.34,4.65,4.65,0,0,1-.36-1.91,3.59,3.59,0,0,1,.53-1.85A4.53,4.53,0,0,1,262,54.61a11.09,11.09,0,0,1,3.09-1.13,23.58,23.58,0,0,1,4.67-.51V51.71a4.32,4.32,0,0,0-.82-2.86,2.93,2.93,0,0,0-2.38-1,5.09,5.09,0,0,0-1.77.26,7.05,7.05,0,0,0-1.23.59c-.35.22-.64.42-.89.59a1.3,1.3,0,0,1-.75.27.84.84,0,0,1-.5-.15,1.82,1.82,0,0,1-.35-.38Zm9.2,6.62a24.13,24.13,0,0,0-3.35.31,10.15,10.15,0,0,0-2.26.65,3.07,3.07,0,0,0-1.26.95,2,2,0,0,0-.39,1.21,2.68,2.68,0,0,0,.21,1.11,2,2,0,0,0,.56.76,2.44,2.44,0,0,0,.85.43,4,4,0,0,0,1.05.13,6,6,0,0,0,1.38-.15,5.32,5.32,0,0,0,1.17-.44,6.41,6.41,0,0,0,1.06-.69,9.12,9.12,0,0,0,1-.91Z"/><path class="cls-1" d="M292,62.08h-2.84V48.25H280.8V58a2.08,2.08,0,0,0,.5,1.52,1.74,1.74,0,0,0,1.28.5,2.28,2.28,0,0,0,.78-.12,3.24,3.24,0,0,0,.56-.27,4.27,4.27,0,0,0,.41-.26.53.53,0,0,1,.3-.12.49.49,0,0,1,.4.27l.83,1.36a5.21,5.21,0,0,1-1.78,1.08,6,6,0,0,1-2.14.39A3.88,3.88,0,0,1,279,61.26a4.26,4.26,0,0,1-1-3.09V48.25h-2a.64.64,0,0,1-.43-.15.58.58,0,0,1-.17-.47V46.49l2.65-.35.66-5a.68.68,0,0,1,.21-.39.65.65,0,0,1,.44-.15h1.44v5.58H292Zm.71-21.41a1.85,1.85,0,0,1-.17.78,2,2,0,0,1-.45.63,2.1,2.1,0,0,1-.65.43,2,2,0,0,1-1.56,0,2.06,2.06,0,0,1-1.06-1.06,1.85,1.85,0,0,1-.16-.78,1.92,1.92,0,0,1,.16-.79,2.28,2.28,0,0,1,.43-.66,2.16,2.16,0,0,1,.63-.44,2,2,0,0,1,1.56,0,2.11,2.11,0,0,1,1.1,1.1A1.93,1.93,0,0,1,292.71,40.67Z"/><path class="cls-1" d="M303.83,45.61a8.18,8.18,0,0,1,3.2.6,6.71,6.71,0,0,1,2.43,1.68A7.37,7.37,0,0,1,311,50.52a11.29,11.29,0,0,1,0,6.9,7.46,7.46,0,0,1-1.54,2.63A6.81,6.81,0,0,1,307,61.72a8.37,8.37,0,0,1-3.2.58,8.49,8.49,0,0,1-3.23-.58,6.85,6.85,0,0,1-2.44-1.67,7.46,7.46,0,0,1-1.54-2.63,11.29,11.29,0,0,1,0-6.9,7.37,7.37,0,0,1,1.54-2.63,6.75,6.75,0,0,1,2.44-1.68A8.3,8.3,0,0,1,303.83,45.61Zm0,14.47a4.16,4.16,0,0,0,3.58-1.61A7.44,7.44,0,0,0,308.6,54a7.51,7.51,0,0,0-1.19-4.51,4.14,4.14,0,0,0-3.58-1.62,5,5,0,0,0-2.12.42,4,4,0,0,0-1.51,1.2,5.21,5.21,0,0,0-.89,1.93A10.16,10.16,0,0,0,299,54a7.44,7.44,0,0,0,1.19,4.49A4.24,4.24,0,0,0,303.83,60.08Z"/><path class="cls-1" d="M318.15,48.22a9.41,9.41,0,0,1,1.12-1.07,7.27,7.27,0,0,1,1.25-.82,6.48,6.48,0,0,1,1.41-.53,6.83,6.83,0,0,1,1.61-.19,5.85,5.85,0,0,1,2.34.44,4.56,4.56,0,0,1,1.7,1.25,5.5,5.5,0,0,1,1,2,8.23,8.23,0,0,1,.35,2.51V62.08H326.1V51.76a4.37,4.37,0,0,0-.84-2.86,3.11,3.11,0,0,0-2.55-1,4.82,4.82,0,0,0-2.36.6,8,8,0,0,0-2,1.65V62.08h-2.86V45.87h1.71a.7.7,0,0,1,.75.59Z"/><path class="cls-1" d="M333.22,48.16a9.22,9.22,0,0,1,2.9-1.94,9,9,0,0,1,3.44-.64A6.09,6.09,0,0,1,342,46a4.86,4.86,0,0,1,1.78,1.25,5.36,5.36,0,0,1,1.09,1.93,8.25,8.25,0,0,1,.36,2.5V62.08h-1.26a1.24,1.24,0,0,1-.64-.14.9.9,0,0,1-.35-.53l-.32-1.54c-.43.39-.85.74-1.25,1.05a7.63,7.63,0,0,1-1.28.77,8.28,8.28,0,0,1-1.43.48,8,8,0,0,1-1.69.16,5.76,5.76,0,0,1-1.78-.26,4.19,4.19,0,0,1-1.44-.79,3.62,3.62,0,0,1-1-1.34,4.65,4.65,0,0,1-.36-1.91,3.59,3.59,0,0,1,.53-1.85,4.53,4.53,0,0,1,1.71-1.57,11.09,11.09,0,0,1,3.09-1.13,23.49,23.49,0,0,1,4.67-.51V51.71a4.32,4.32,0,0,0-.82-2.86,3,3,0,0,0-2.38-1,5.09,5.09,0,0,0-1.77.26,7.05,7.05,0,0,0-1.23.59l-.9.59a1.27,1.27,0,0,1-.74.27.84.84,0,0,1-.5-.15,1.58,1.58,0,0,1-.35-.38Zm9.2,6.62a24.13,24.13,0,0,0-3.35.31,10,10,0,0,0-2.26.65,3.07,3.07,0,0,0-1.26.95,2,2,0,0,0-.39,1.21,2.69,2.69,0,0,0,.2,1.11,2.09,2.09,0,0,0,.57.76,2.35,2.35,0,0,0,.85.43,3.87,3.87,0,0,0,1.05.13,5.81,5.81,0,0,0,1.37-.15,5.21,5.21,0,0,0,1.18-.44,5.94,5.94,0,0,0,1.05-.69,8.33,8.33,0,0,0,1-.91Z"/><path class="cls-1" d="M352.8,38.51V62.08H350V38.51Z"/><polygon class="cls-1" points="284.04 22.12 291.6 29.92 289.66 32.18 284.51 26.98 281.99 24.33 284.04 22.12"/><path class="cls-1" d="M281.41,30.23a9.6,9.6,0,0,1-9.73-9.46,9.73,9.73,0,0,1,19.45,0A9.6,9.6,0,0,1,281.41,30.23Zm0-16.32a6.87,6.87,0,1,0,0,13.73,7,7,0,0,0,7.06-6.87A7,7,0,0,0,281.41,13.91Z"/><path class="cls-1" d="M180.78,73.26l-1.31,4h-.57c-.07,0-.12,0-.14-.13l-.9-2.75a1.33,1.33,0,0,1-.05-.19c0-.06,0-.12,0-.18s0,.12,0,.18a1.33,1.33,0,0,1,0,.19l-.91,2.75a.16.16,0,0,1-.16.13h-.54l-1.31-4h.56a.23.23,0,0,1,.14,0,.28.28,0,0,1,.08.11l.77,2.61a4,4,0,0,1,.11.54c0-.09.05-.18.08-.27a2.76,2.76,0,0,1,.08-.27l.85-2.63a.36.36,0,0,1,.07-.1.2.2,0,0,1,.13,0h.31a.18.18,0,0,1,.13,0,.23.23,0,0,1,.07.1L179,76c0,.09.05.18.08.27a2.68,2.68,0,0,0,.07.27,2.56,2.56,0,0,1,.05-.27l.06-.27.79-2.61a.28.28,0,0,1,.08-.11.2.2,0,0,1,.13,0Z"/><path class="cls-1" d="M187.09,73.26l-1.32,4h-.56c-.07,0-.12,0-.15-.13l-.89-2.75a1.33,1.33,0,0,1,0-.19,1.16,1.16,0,0,1,0-.18,1.16,1.16,0,0,0,0,.18,1.39,1.39,0,0,1-.06.19l-.91,2.75a.15.15,0,0,1-.16.13h-.53l-1.31-4h.56a.23.23,0,0,1,.14,0,.28.28,0,0,1,.08.11l.77,2.61c0,.19.08.37.11.54,0-.09.05-.18.07-.27l.09-.27.85-2.63a.23.23,0,0,1,.07-.1.17.17,0,0,1,.12,0h.31a.21.21,0,0,1,.14,0,.23.23,0,0,1,.07.1l.84,2.63a2.76,2.76,0,0,0,.08.27l.06.27c0-.09,0-.18,0-.27s.05-.18.07-.27l.79-2.61a.21.21,0,0,1,.08-.11.2.2,0,0,1,.13,0Z"/><path class="cls-1" d="M193.39,73.26l-1.31,4h-.56c-.07,0-.12,0-.15-.13l-.89-2.75a1.33,1.33,0,0,1,0-.19,1.16,1.16,0,0,1,0-.18,1.16,1.16,0,0,0,0,.18l-.06.19-.91,2.75a.15.15,0,0,1-.16.13h-.53l-1.32-4h.56a.24.24,0,0,1,.15,0,.26.26,0,0,1,.07.11l.78,2.61c0,.19.08.37.11.54,0-.09.05-.18.07-.27s0-.18.08-.27l.86-2.63a.23.23,0,0,1,.07-.1.16.16,0,0,1,.12,0h.31a.21.21,0,0,1,.14,0,.36.36,0,0,1,.07.1l.83,2.63a2.76,2.76,0,0,1,.08.27,2.68,2.68,0,0,1,.07.27c0-.09,0-.18,0-.27a2.68,2.68,0,0,1,.07-.27l.79-2.61a.21.21,0,0,1,.08-.11.18.18,0,0,1,.13,0Z"/><path class="cls-1" d="M193.82,76.87a.58.58,0,0,1,0-.19.49.49,0,0,1,.1-.16.42.42,0,0,1,.16-.11.45.45,0,0,1,.2,0,.41.41,0,0,1,.19,0,.53.53,0,0,1,.27.27.41.41,0,0,1,0,.19.45.45,0,0,1,0,.2.42.42,0,0,1-.11.16.37.37,0,0,1-.16.1.41.41,0,0,1-.19,0,.45.45,0,0,1-.2,0,.54.54,0,0,1-.16-.1.86.86,0,0,1-.1-.16A.65.65,0,0,1,193.82,76.87Z"/><path class="cls-1" d="M199.19,73.26v4h-.43a.18.18,0,0,1-.19-.15l-.06-.43a2.22,2.22,0,0,1-.59.47,1.65,1.65,0,0,1-1.34.07,1.12,1.12,0,0,1-.42-.32,1.24,1.24,0,0,1-.26-.48,2.08,2.08,0,0,1-.09-.63V73.26h.72v2.58a1.1,1.1,0,0,0,.21.72.81.81,0,0,0,.64.25,1.23,1.23,0,0,0,.59-.15,1.78,1.78,0,0,0,.5-.42v-3Z"/><path class="cls-1" d="M201,73.85a2.37,2.37,0,0,1,.28-.27,2.11,2.11,0,0,1,.31-.21,1.91,1.91,0,0,1,.36-.13,1.64,1.64,0,0,1,.4,0,1.34,1.34,0,0,1,.58.11,1.1,1.1,0,0,1,.43.31,1.38,1.38,0,0,1,.26.48,2.47,2.47,0,0,1,.08.63v2.58H203V74.73a1.07,1.07,0,0,0-.21-.71.79.79,0,0,0-.64-.26,1.2,1.2,0,0,0-.59.15,2.19,2.19,0,0,0-.51.42v3h-.71v-4h.43a.17.17,0,0,1,.18.15Z"/><path class="cls-1" d="M205.73,72a.41.41,0,0,1,0,.19.91.91,0,0,1-.11.16.62.62,0,0,1-.17.11.45.45,0,0,1-.2,0,.41.41,0,0,1-.19,0,.57.57,0,0,1-.16-.11.91.91,0,0,1-.11-.16.58.58,0,0,1,0-.19.5.5,0,0,1,.15-.36.42.42,0,0,1,.16-.11.41.41,0,0,1,.19,0,.54.54,0,0,1,.37.15.64.64,0,0,1,.11.16A.45.45,0,0,1,205.73,72Zm-.15,1.27v4h-.72v-4Z"/><path class="cls-1" d="M209.13,73.93A.16.16,0,0,1,209,74a.27.27,0,0,1-.13,0l-.19-.1-.26-.1a1.28,1.28,0,0,0-.36,0,1.15,1.15,0,0,0-.33,0,.92.92,0,0,0-.24.13.49.49,0,0,0-.16.19.56.56,0,0,0-.05.23.35.35,0,0,0,.09.25,1,1,0,0,0,.24.19,2.06,2.06,0,0,0,.33.13l.39.12.38.15a1.27,1.27,0,0,1,.34.2,1,1,0,0,1,.24.29.93.93,0,0,1,.09.42,1.46,1.46,0,0,1-.1.52,1.12,1.12,0,0,1-.3.41,1.41,1.41,0,0,1-.48.28,2.16,2.16,0,0,1-.65.1,2.07,2.07,0,0,1-.77-.14,1.83,1.83,0,0,1-.59-.36l.17-.27a.3.3,0,0,1,.08-.08.18.18,0,0,1,.11,0,.24.24,0,0,1,.15.06l.2.12a1.13,1.13,0,0,0,.27.13,1.58,1.58,0,0,0,.41,0,1,1,0,0,0,.36,0,.87.87,0,0,0,.27-.15.51.51,0,0,0,.15-.21.7.7,0,0,0,.05-.25.41.41,0,0,0-.09-.28.65.65,0,0,0-.24-.19,2.18,2.18,0,0,0-.34-.14l-.38-.12a2.26,2.26,0,0,1-.39-.15,1.27,1.27,0,0,1-.34-.2.92.92,0,0,1-.24-.31,1,1,0,0,1-.09-.44,1,1,0,0,1,.1-.44.94.94,0,0,1,.28-.38,1.4,1.4,0,0,1,.45-.26,1.91,1.91,0,0,1,.61-.09,2,2,0,0,1,.72.12,1.73,1.73,0,0,1,.55.35Z"/><path class="cls-1" d="M213.68,73.26l-2.26,5.25a.38.38,0,0,1-.09.13.24.24,0,0,1-.16,0h-.53l.74-1.61-1.67-3.81h.61a.2.2,0,0,1,.15,0,.23.23,0,0,1,.07.1L211.63,76a3.57,3.57,0,0,1,.1.35l.12-.36,1.06-2.54a.21.21,0,0,1,.08-.11.2.2,0,0,1,.13,0Z"/><path class="cls-1" d="M215,73.85a2.29,2.29,0,0,1,.27-.27,2.2,2.2,0,0,1,.32-.21,2.09,2.09,0,0,1,.35-.13,1.7,1.7,0,0,1,.4,0,1.38,1.38,0,0,1,.59.11,1,1,0,0,1,.42.31,1.24,1.24,0,0,1,.26.48,2.08,2.08,0,0,1,.09.63v2.58H217V74.73a1.07,1.07,0,0,0-.21-.71.78.78,0,0,0-.64-.26,1.17,1.17,0,0,0-.58.15,1.85,1.85,0,0,0-.51.42v3h-.72v-4h.43a.18.18,0,0,1,.19.15Z"/><path class="cls-1" d="M222.17,73.26v5.42h-.71v-2a2.22,2.22,0,0,1-.58.48,1.54,1.54,0,0,1-.75.18,1.46,1.46,0,0,1-.63-.14,1.29,1.29,0,0,1-.48-.39,1.71,1.71,0,0,1-.31-.65,3.38,3.38,0,0,1-.11-.89,2.73,2.73,0,0,1,.12-.83,2.22,2.22,0,0,1,.34-.67,1.64,1.64,0,0,1,.56-.45,1.57,1.57,0,0,1,.73-.16,1.38,1.38,0,0,1,.67.14,1.41,1.41,0,0,1,.49.39l.05-.31a.18.18,0,0,1,.19-.15Zm-.71,1a1.11,1.11,0,0,0-1-.48,1,1,0,0,0-.87.41,1.9,1.9,0,0,0-.3,1.15,2.73,2.73,0,0,0,.07.68,1.39,1.39,0,0,0,.19.46.86.86,0,0,0,.33.27,1.19,1.19,0,0,0,.44.08,1.13,1.13,0,0,0,.61-.16,2,2,0,0,0,.48-.45Z"/><path class="cls-1" d="M223.2,76.87a.58.58,0,0,1,0-.19.38.38,0,0,1,.11-.16.33.33,0,0,1,.15-.11.52.52,0,0,1,.4,0,.42.42,0,0,1,.16.11.37.37,0,0,1,.1.16.41.41,0,0,1,0,.19.45.45,0,0,1,0,.2.42.42,0,0,1-.26.26.52.52,0,0,1-.4,0,.4.4,0,0,1-.15-.1.57.57,0,0,1-.11-.16A.65.65,0,0,1,223.2,76.87Z"/><path class="cls-1" d="M228.06,74l-.07.07-.09,0a.27.27,0,0,1-.13,0l-.18-.11a1.07,1.07,0,0,0-.26-.11,1.27,1.27,0,0,0-.37,0,1.25,1.25,0,0,0-.53.11,1,1,0,0,0-.38.3,1.49,1.49,0,0,0-.24.49,2.48,2.48,0,0,0-.07.63,2.21,2.21,0,0,0,.08.66,1.54,1.54,0,0,0,.24.48.87.87,0,0,0,.37.29,1.14,1.14,0,0,0,.49.11,1.29,1.29,0,0,0,.43-.07,1.46,1.46,0,0,0,.28-.13l.18-.14a.26.26,0,0,1,.15-.07.16.16,0,0,1,.13.07l.2.26a1.32,1.32,0,0,1-.3.28,2.08,2.08,0,0,1-.36.2,1.76,1.76,0,0,1-.41.11,2,2,0,0,1-.43,0,1.78,1.78,0,0,1-.7-.14,1.66,1.66,0,0,1-.57-.41,1.89,1.89,0,0,1-.38-.65,3,3,0,0,1,0-1.72,2.07,2.07,0,0,1,.37-.67,1.65,1.65,0,0,1,.6-.43,2.05,2.05,0,0,1,.81-.15,2,2,0,0,1,.76.13,2.06,2.06,0,0,1,.57.39Z"/><path class="cls-1" d="M230.72,73.2a2.07,2.07,0,0,1,.8.14,1.71,1.71,0,0,1,.6.42,1.89,1.89,0,0,1,.39.66,2.94,2.94,0,0,1,0,1.73,1.85,1.85,0,0,1-.39.65,1.59,1.59,0,0,1-.6.42,2.24,2.24,0,0,1-1.61,0,1.63,1.63,0,0,1-.61-.42,1.85,1.85,0,0,1-.39-.65,2.94,2.94,0,0,1,0-1.73,1.89,1.89,0,0,1,.39-.66,1.75,1.75,0,0,1,.61-.42A2.09,2.09,0,0,1,230.72,73.2Zm0,3.61a1,1,0,0,0,.89-.4,2.26,2.26,0,0,0,0-2.25,1,1,0,0,0-.89-.4,1.22,1.22,0,0,0-.53.1,1,1,0,0,0-.38.3,1.33,1.33,0,0,0-.22.48,2.57,2.57,0,0,0-.08.65,1.84,1.84,0,0,0,.3,1.12A1.05,1.05,0,0,0,230.72,76.81Z"/><path class="cls-1" d="M233.57,77.31v-4H234a.17.17,0,0,1,.18.15l.06.41a2.13,2.13,0,0,1,.5-.45,1.17,1.17,0,0,1,.65-.17,1,1,0,0,1,.66.22,1.32,1.32,0,0,1,.37.62,1.4,1.4,0,0,1,.22-.38,1.23,1.23,0,0,1,.31-.26,1.3,1.3,0,0,1,.76-.2,1.42,1.42,0,0,1,.57.1,1.08,1.08,0,0,1,.43.3,1.38,1.38,0,0,1,.26.48,2.17,2.17,0,0,1,.09.65v2.58h-.71V74.73a1.07,1.07,0,0,0-.21-.72.76.76,0,0,0-.6-.25.88.88,0,0,0-.33.06.92.92,0,0,0-.28.19.91.91,0,0,0-.19.3,1.09,1.09,0,0,0-.07.42v2.58H236V74.73a1.16,1.16,0,0,0-.19-.73.7.7,0,0,0-.58-.24.85.85,0,0,0-.48.15,1.46,1.46,0,0,0-.41.38v3Z"/><path class="cls-2" d="M76.43,0V16.53l-4-3.82V5.56l0-5.56Zm74.5,40.49A38.92,38.92,0,0,0,110.13.05c-20.84,1-37,18.71-37,39.58v.1a34.57,34.57,0,0,1-36.71,34.5C18.56,73.15,4,57,4,39.1V1.4H4L4,0H0v39.1c0,20.51,15.75,38,36.23,39.18A38.56,38.56,0,0,0,77.08,41.85h0c0-.68,0-1.36,0-2.05V35.41a35.09,35.09,0,1,1,55.34,32L125.74,61l-2.26,2.36,5.22,5,.93.88A34.53,34.53,0,0,1,114.18,74,35.07,35.07,0,0,1,83.41,59.21l-3.72,1.34A38.8,38.8,0,0,0,132.5,72l6.75,6.39,2.08-2.47-6.07-5.81A38.91,38.91,0,0,0,150.93,40.49Z"/></g></g></svg>