<svg xmlns="http://www.w3.org/2000/svg" xmlns:xlink="http://www.w3.org/1999/xlink" viewBox="0 0 214.81 45.94"><defs><style>.cls-1{fill:#fff;}.cls-2{fill:url(#linear-gradient);}</style><linearGradient id="linear-gradient" y1="22.97" x2="88.51" y2="22.97" gradientUnits="userSpaceOnUse"><stop offset="0" stop-color="#00d2ff"/><stop offset="1" stop-color="#3a7bd5"/></linearGradient></defs><g id="Layer_2" data-name="Layer 2"><g id="Layer_1-2" data-name="Layer 1"><path class="cls-1" d="M107.5,17.21a4.18,4.18,0,0,0,1.62-.31,3.3,3.3,0,0,0,1.21-.86,3.6,3.6,0,0,0,.75-1.31,5,5,0,0,0,.26-1.68V4.17h2v8.88a6.61,6.61,0,0,1-.4,2.34,5.4,5.4,0,0,1-1.15,1.87,5.25,5.25,0,0,1-1.83,1.24,6.79,6.79,0,0,1-4.86,0,5.29,5.29,0,0,1-3-3.11,6.61,6.61,0,0,1-.4-2.34V4.17h2V13a5.29,5.29,0,0,0,.25,1.68,3.77,3.77,0,0,0,.76,1.31,3.44,3.44,0,0,0,1.21.87A4.19,4.19,0,0,0,107.5,17.21Z"/><path class="cls-1" d="M118,10a6.69,6.69,0,0,1,.72-.69,4.77,4.77,0,0,1,.8-.52,4,4,0,0,1,.89-.34,4.23,4.23,0,0,1,1-.11,3.67,3.67,0,0,1,1.49.28,2.86,2.86,0,0,1,1.08.79,3.51,3.51,0,0,1,.66,1.24,5.38,5.38,0,0,1,.22,1.6v6.58h-1.82V12.2a2.76,2.76,0,0,0-.54-1.82A2,2,0,0,0,121,9.73a3.06,3.06,0,0,0-1.51.39,5.22,5.22,0,0,0-1.29,1.05v7.61h-1.82V8.45h1.09a.44.44,0,0,1,.48.38Z"/><path class="cls-1" d="M130.22,5.21a1.17,1.17,0,0,1-.11.49,1.46,1.46,0,0,1-.29.41,1.42,1.42,0,0,1-.41.28,1.25,1.25,0,0,1-.51.1,1.13,1.13,0,0,1-.49-.1,1.3,1.3,0,0,1-.41-.28,1.62,1.62,0,0,1-.27-.41,1.16,1.16,0,0,1-.1-.49,1.25,1.25,0,0,1,.1-.51,1.51,1.51,0,0,1,.27-.42,1.26,1.26,0,0,1,.9-.38,1.45,1.45,0,0,1,.51.1,1.42,1.42,0,0,1,.41.28,1.37,1.37,0,0,1,.29.42A1.26,1.26,0,0,1,130.22,5.21Zm-.39,3.24V18.78H128V8.45Z"/><path class="cls-1" d="M139,10.15a.39.39,0,0,1-.37.23.67.67,0,0,1-.35-.12l-.47-.25a5,5,0,0,0-.67-.25,3.16,3.16,0,0,0-.92-.12,2.73,2.73,0,0,0-.83.12,1.91,1.91,0,0,0-.62.32,1.36,1.36,0,0,0-.4.47,1.31,1.31,0,0,0-.14.59,1,1,0,0,0,.23.66,2,2,0,0,0,.61.46,5.57,5.57,0,0,0,.85.34l1,.32c.34.11.66.24,1,.37a3.83,3.83,0,0,1,.86.51,2.48,2.48,0,0,1,.61.75,2.35,2.35,0,0,1,.23,1.07,3.41,3.41,0,0,1-.26,1.32,3,3,0,0,1-.75,1,3.77,3.77,0,0,1-1.23.7,5.29,5.29,0,0,1-1.67.25,5.12,5.12,0,0,1-3.45-1.25l.43-.7a.64.64,0,0,1,.2-.2.49.49,0,0,1,.28-.07.74.74,0,0,1,.39.14l.49.32a4,4,0,0,0,.71.31,3.15,3.15,0,0,0,1,.14,2.9,2.9,0,0,0,.93-.13,2,2,0,0,0,.66-.37,1.39,1.39,0,0,0,.39-.55,1.57,1.57,0,0,0,.13-.65,1.06,1.06,0,0,0-.23-.71,2.11,2.11,0,0,0-.6-.48,5.44,5.44,0,0,0-.87-.34l-1-.31c-.34-.11-.67-.24-1-.38a3.08,3.08,0,0,1-.86-.52,2.23,2.23,0,0,1-.61-.78,2.59,2.59,0,0,1-.23-1.13,2.76,2.76,0,0,1,.24-1.13,2.82,2.82,0,0,1,.72-1,3.31,3.31,0,0,1,1.15-.66,4.69,4.69,0,0,1,1.56-.24,4.81,4.81,0,0,1,1.83.32,4.11,4.11,0,0,1,1.4.88Z"/><path class="cls-1" d="M150.77,8.45,145,21.83a1,1,0,0,1-.23.32.62.62,0,0,1-.42.12H143l1.89-4.09-4.26-9.73h1.57a.55.55,0,0,1,.37.12.61.61,0,0,1,.19.26l2.76,6.5a8.57,8.57,0,0,1,.28.9c.09-.32.19-.62.3-.91l2.68-6.49a.56.56,0,0,1,.21-.27.51.51,0,0,1,.33-.11Z"/><path class="cls-1" d="M154.29,10a6.6,6.6,0,0,1,.71-.69,5.22,5.22,0,0,1,.8-.52,3.89,3.89,0,0,1,.9-.34,4.2,4.2,0,0,1,1-.11,3.68,3.68,0,0,1,1.5.28,2.86,2.86,0,0,1,1.08.79A3.51,3.51,0,0,1,161,10.6a5.38,5.38,0,0,1,.22,1.6v6.58h-1.82V12.2a2.76,2.76,0,0,0-.54-1.82,2,2,0,0,0-1.63-.65,3,3,0,0,0-1.5.39,4.88,4.88,0,0,0-1.29,1.05v7.61h-1.83V8.45h1.1a.45.45,0,0,1,.48.38Z"/><path class="cls-1" d="M103.84,39.17h-2V24.56h2Z"/><path class="cls-1" d="M108.91,30.34a5.68,5.68,0,0,1,.71-.68,4.62,4.62,0,0,1,.8-.53,3.89,3.89,0,0,1,.9-.34,4.69,4.69,0,0,1,1-.11,3.72,3.72,0,0,1,1.5.28,2.86,2.86,0,0,1,1.08.79,3.42,3.42,0,0,1,.65,1.24,5.38,5.38,0,0,1,.23,1.6v6.58H114V32.59a2.76,2.76,0,0,0-.53-1.82,2,2,0,0,0-1.63-.65,3,3,0,0,0-1.5.39,4.88,4.88,0,0,0-1.29,1v7.61h-1.83V28.84h1.09a.45.45,0,0,1,.48.38Z"/><path class="cls-1" d="M121.81,39.33a2.53,2.53,0,0,1-1.89-.68,2.77,2.77,0,0,1-.65-2V30.36H118a.36.36,0,0,1-.27-.1.35.35,0,0,1-.11-.3v-.72l1.69-.22.42-3.19a.47.47,0,0,1,.13-.25.43.43,0,0,1,.28-.09h.92V29h3v1.32h-3v6.2a1.33,1.33,0,0,0,.32,1,1.09,1.09,0,0,0,.81.31,1.51,1.51,0,0,0,.5-.07,2,2,0,0,0,.36-.17l.26-.17a.34.34,0,0,1,.19-.08.31.31,0,0,1,.25.18l.53.86a3.15,3.15,0,0,1-1.13.69A3.76,3.76,0,0,1,121.81,39.33Z"/><path class="cls-1" d="M134.48,37.72a3.47,3.47,0,0,1-.81.71,4.89,4.89,0,0,1-1,.49,6,6,0,0,1-1.11.29,6.24,6.24,0,0,1-1.13.1,5.27,5.27,0,0,1-2-.36,4.41,4.41,0,0,1-1.56-1.06,5,5,0,0,1-1-1.73,7.14,7.14,0,0,1-.36-2.36,6,6,0,0,1,.33-2,4.8,4.8,0,0,1,1-1.63,4.39,4.39,0,0,1,1.52-1.08,5,5,0,0,1,2-.39,4.61,4.61,0,0,1,1.72.31,3.68,3.68,0,0,1,1.36.9,3.92,3.92,0,0,1,.9,1.44,5.5,5.5,0,0,1,.33,2,1.23,1.23,0,0,1-.09.57.4.4,0,0,1-.35.14h-6.9a6,6,0,0,0,.27,1.7,3.36,3.36,0,0,0,.67,1.21,2.64,2.64,0,0,0,1,.72,3.45,3.45,0,0,0,1.32.24,4.08,4.08,0,0,0,1.18-.15,5.33,5.33,0,0,0,.85-.35,5.13,5.13,0,0,0,.6-.34.86.86,0,0,1,.41-.16.4.4,0,0,1,.35.18ZM133,32.88a3.57,3.57,0,0,0-.18-1.16,2.64,2.64,0,0,0-.52-.91,2.37,2.37,0,0,0-.83-.59,3.13,3.13,0,0,0-3.17.55,3.54,3.54,0,0,0-1,2.11Z"/><path class="cls-1" d="M138.79,30.91a4.78,4.78,0,0,1,1.2-1.66,2.63,2.63,0,0,1,1.75-.59,2.51,2.51,0,0,1,.62.07,1.86,1.86,0,0,1,.54.22l-.13,1.36a.29.29,0,0,1-.31.25,2.28,2.28,0,0,1-.42-.06,2.9,2.9,0,0,0-.62-.06,2.65,2.65,0,0,0-.87.14,2.12,2.12,0,0,0-.68.43,2.76,2.76,0,0,0-.54.69,6.32,6.32,0,0,0-.44.94v6.53h-1.82V28.84h1a.61.61,0,0,1,.41.11.79.79,0,0,1,.15.39Z"/><path class="cls-1" d="M146.41,30.34a5.68,5.68,0,0,1,.71-.68,4.62,4.62,0,0,1,.8-.53,3.89,3.89,0,0,1,.9-.34,4.76,4.76,0,0,1,1-.11,3.68,3.68,0,0,1,1.5.28,2.86,2.86,0,0,1,1.08.79,3.59,3.59,0,0,1,.66,1.24,5.38,5.38,0,0,1,.22,1.6v6.58h-1.82V32.59a2.76,2.76,0,0,0-.54-1.82,2,2,0,0,0-1.63-.65,3,3,0,0,0-1.5.39,4.88,4.88,0,0,0-1.29,1v7.61h-1.83V28.84h1.1a.46.46,0,0,1,.48.38Z"/><path class="cls-1" d="M156,30.3a6.07,6.07,0,0,1,1.85-1.24,5.73,5.73,0,0,1,2.19-.4,3.92,3.92,0,0,1,1.54.28,3.09,3.09,0,0,1,1.13.8,3.38,3.38,0,0,1,.7,1.23,5.31,5.31,0,0,1,.23,1.59v6.61h-.81a.74.74,0,0,1-.4-.09.6.6,0,0,1-.23-.34l-.2-1a9.17,9.17,0,0,1-.8.67,4.85,4.85,0,0,1-.81.49,4.51,4.51,0,0,1-.92.3,4.45,4.45,0,0,1-1.07.11,3.47,3.47,0,0,1-1.13-.17,2.69,2.69,0,0,1-.93-.5,2.56,2.56,0,0,1-.62-.85,3.05,3.05,0,0,1-.23-1.22,2.23,2.23,0,0,1,.34-1.18,2.89,2.89,0,0,1,1.09-1,7,7,0,0,1,2-.72,14.29,14.29,0,0,1,3-.32v-.81a2.8,2.8,0,0,0-.52-1.82,1.9,1.9,0,0,0-1.52-.62,3.32,3.32,0,0,0-1.13.17,4.47,4.47,0,0,0-.79.38l-.57.38a.82.82,0,0,1-.47.17.58.58,0,0,1-.32-.1,1.26,1.26,0,0,1-.22-.24Zm5.87,4.22a14.88,14.88,0,0,0-2.14.2,5.83,5.83,0,0,0-1.44.41,1.93,1.93,0,0,0-.8.6,1.27,1.27,0,0,0-.25.78,1.68,1.68,0,0,0,.13.7,1.27,1.27,0,0,0,.36.48,1.39,1.39,0,0,0,.54.28,2.41,2.41,0,0,0,.67.09,4,4,0,0,0,.88-.1,3.39,3.39,0,0,0,.75-.28,4.54,4.54,0,0,0,.67-.44,6.65,6.65,0,0,0,.63-.58Z"/><path class="cls-1" d="M176.07,39.17h-1.82V30.36h-5.32v6.2a1.33,1.33,0,0,0,.32,1,1.09,1.09,0,0,0,.81.31,1.51,1.51,0,0,0,.5-.07,2,2,0,0,0,.36-.17l.26-.17a.34.34,0,0,1,.19-.08.31.31,0,0,1,.25.18l.53.86a3.15,3.15,0,0,1-1.13.69,3.78,3.78,0,0,1-1.37.25,2.52,2.52,0,0,1-1.88-.68,2.77,2.77,0,0,1-.65-2V30.36h-1.25a.36.36,0,0,1-.27-.1.35.35,0,0,1-.12-.3v-.72l1.7-.23.42-3.18a.47.47,0,0,1,.13-.25.43.43,0,0,1,.28-.09h.92V29h7.14Zm.45-13.64a1.17,1.17,0,0,1-.11.49,1.28,1.28,0,0,1-.29.4,1.2,1.2,0,0,1-.41.28,1.18,1.18,0,0,1-.5.1,1.13,1.13,0,0,1-.49-.1,1.3,1.3,0,0,1-.41-.28A1.41,1.41,0,0,1,174,26a1.16,1.16,0,0,1-.1-.49A1.25,1.25,0,0,1,174,25a1.51,1.51,0,0,1,.27-.42,1.26,1.26,0,0,1,.9-.38,1.35,1.35,0,0,1,.5.1,1.2,1.2,0,0,1,.41.28,1.37,1.37,0,0,1,.29.42A1.26,1.26,0,0,1,176.52,25.53Z"/><path class="cls-1" d="M183.6,28.68a5.26,5.26,0,0,1,2,.37,4.48,4.48,0,0,1,1.55,1.07,4.85,4.85,0,0,1,1,1.68,7.29,7.29,0,0,1,0,4.4,4.72,4.72,0,0,1-1,1.67,4.23,4.23,0,0,1-1.55,1.07,5.26,5.26,0,0,1-2,.37,5.35,5.35,0,0,1-2-.37A4.26,4.26,0,0,1,180,37.87a4.85,4.85,0,0,1-1-1.67,7.29,7.29,0,0,1,0-4.4,5,5,0,0,1,1-1.68,4.52,4.52,0,0,1,1.56-1.07A5.35,5.35,0,0,1,183.6,28.68Zm0,9.21a2.68,2.68,0,0,0,2.29-1,4.77,4.77,0,0,0,.75-2.86,4.83,4.83,0,0,0-.75-2.88,2.68,2.68,0,0,0-2.29-1,3.19,3.19,0,0,0-1.35.27,2.64,2.64,0,0,0-1,.76,3.68,3.68,0,0,0-.57,1.23,6.93,6.93,0,0,0-.19,1.65,4.77,4.77,0,0,0,.76,2.86A2.7,2.7,0,0,0,183.6,37.89Z"/><path class="cls-1" d="M192.73,30.34a5.68,5.68,0,0,1,.71-.68,4.62,4.62,0,0,1,.8-.53,3.89,3.89,0,0,1,.9-.34,4.69,4.69,0,0,1,1-.11,3.68,3.68,0,0,1,1.5.28,2.86,2.86,0,0,1,1.08.79A3.59,3.59,0,0,1,199.4,31a5.73,5.73,0,0,1,.22,1.6v6.58h-1.83V32.59a2.76,2.76,0,0,0-.53-1.82,2,2,0,0,0-1.63-.65,3,3,0,0,0-1.5.39,4.88,4.88,0,0,0-1.29,1v7.61H191V28.84h1.1a.45.45,0,0,1,.47.38Z"/><path class="cls-1" d="M202.33,30.3a6.07,6.07,0,0,1,1.85-1.24,5.73,5.73,0,0,1,2.19-.4,3.92,3.92,0,0,1,1.54.28,3.18,3.18,0,0,1,1.13.8,3.22,3.22,0,0,1,.69,1.23,5,5,0,0,1,.24,1.59v6.61h-.81a.74.74,0,0,1-.4-.09.6.6,0,0,1-.23-.34l-.2-1a9.17,9.17,0,0,1-.8.67,4.85,4.85,0,0,1-.81.49,4.51,4.51,0,0,1-.92.3,4.45,4.45,0,0,1-1.07.11,3.47,3.47,0,0,1-1.13-.17,2.69,2.69,0,0,1-.93-.5,2.43,2.43,0,0,1-.62-.85,3.05,3.05,0,0,1-.23-1.22,2.23,2.23,0,0,1,.34-1.18,2.89,2.89,0,0,1,1.09-1,7,7,0,0,1,2-.72,14.26,14.26,0,0,1,3-.32v-.81a2.8,2.8,0,0,0-.51-1.82,1.9,1.9,0,0,0-1.52-.62,3.32,3.32,0,0,0-1.13.17,4.15,4.15,0,0,0-.79.38l-.57.38a.82.82,0,0,1-.47.17.58.58,0,0,1-.32-.1,1,1,0,0,1-.22-.24Zm5.86,4.22a14.87,14.87,0,0,0-2.13.2,5.83,5.83,0,0,0-1.44.41,1.93,1.93,0,0,0-.8.6,1.27,1.27,0,0,0-.25.78,1.68,1.68,0,0,0,.13.7,1.27,1.27,0,0,0,.36.48,1.39,1.39,0,0,0,.54.28,2.41,2.41,0,0,0,.67.09,4,4,0,0,0,.88-.1,3.39,3.39,0,0,0,.75-.28,4.54,4.54,0,0,0,.67-.44,5.55,5.55,0,0,0,.62-.58Z"/><path class="cls-1" d="M214.81,24.15v15H213v-15Z"/><polygon class="cls-1" points="171.99 13.71 176.81 18.68 175.57 20.12 172.3 16.8 170.69 15.12 171.99 13.71"/><path class="cls-1" d="M170.32,18.87a6.12,6.12,0,0,1-6.2-6,6.2,6.2,0,0,1,12.39,0A6.12,6.12,0,0,1,170.32,18.87Zm0-10.4a4.45,4.45,0,0,0-4.5,4.38,4.5,4.5,0,0,0,9,0A4.44,4.44,0,0,0,170.32,8.47Z"/><path class="cls-2" d="M44.82,0V9.69L42.47,7.45V3.26L42.5,0ZM88.5,23.74A22.83,22.83,0,0,0,64.57,0C52.35.61,42.88,11,42.88,23.23v.06A20.27,20.27,0,0,1,21.35,43.52c-10.47-.63-19-10.11-19-20.6V.82h0V0H0V22.93a22.87,22.87,0,0,0,21.24,23A22.62,22.62,0,0,0,44.13,30.28a21.83,21.83,0,0,0,1.06-5.74h0q0-.6,0-1.2V20.76A20.58,20.58,0,1,1,77.67,39.52l-3.94-3.77L72.4,37.13l3.06,2.95.55.52a20.5,20.5,0,0,1-27.1-5.89l-2.19.79a22.76,22.76,0,0,0,31,6.69l4,3.75,1.22-1.45-3.56-3.41A22.85,22.85,0,0,0,88.5,23.74Z"/></g></g></svg>