<svg xmlns="http://www.w3.org/2000/svg" xmlns:xlink="http://www.w3.org/1999/xlink" viewBox="0 0 371.51 192.83"><defs><style>.cls-1{fill:url(#linear-gradient);}</style><linearGradient id="linear-gradient" y1="96.41" x2="371.51" y2="96.41" gradientUnits="userSpaceOnUse"><stop offset="0" stop-color="#00d2ff"/><stop offset="1" stop-color="#3a7bd5"/></linearGradient></defs><g id="Layer_2" data-name="Layer 2"><g id="Layer_1-2" data-name="Layer 1"><path class="cls-1" d="M188.1,0V40.68l-9.83-9.4V13.69L178.37,0ZM371.43,99.63A95.79,95.79,0,0,0,271,.11c-51.28,2.46-91,46.05-91,97.41v.24a85.07,85.07,0,0,1-90.34,84.9C45.68,180,9.82,140.24,9.82,96.21V3.43h.07L9.94,0H0V96.24c0,50.47,38.76,93.44,89.16,96.42a95,95,0,0,0,96.07-65.56A93.9,93.9,0,0,0,189.69,103v0c.07-1.67.12-3.34.12-5V87.13A86.36,86.36,0,1,1,326,165.88L309.44,150l-5.56,5.81,12.84,12.4,2.29,2.17A85.1,85.1,0,0,1,281,182a86.29,86.29,0,0,1-75.72-36.28l-9.16,3.3a95.63,95.63,0,0,0,80.82,42.52,94.66,94.66,0,0,0,49.14-14.44l16.62,15.72,5.11-6.08-14.93-14.29A95.75,95.75,0,0,0,371.43,99.63Z"/></g></g></svg>